<?xml version="1.0" standalone="no"?>
<!DOCTYPE svg PUBLIC "-//W3C//DTD SVG 20010904//EN"
 "http://www.w3.org/TR/2001/REC-SVG-20010904/DTD/svg10.dtd">
<svg version="1.0" xmlns="http://www.w3.org/2000/svg"
 width="640.000000pt" height="640.000000pt" viewBox="0 0 640.000000 640.000000"
 preserveAspectRatio="xMidYMid meet">
<metadata>
Created by potrace 1.14, written by Peter Selinger 2001-2017
</metadata>
<g transform="translate(0.000000,640.000000) scale(0.100000,-0.100000)"
fill="#000000" stroke="none">
<path d="M3008 6395 c-2 -1 -44 -5 -95 -9 -51 -3 -98 -8 -105 -11 -7 -2 -35
-6 -63 -9 -58 -7 -84 -11 -180 -32 -38 -8 -81 -17 -95 -20 -183 -36 -517 -157
-716 -260 -158 -81 -401 -233 -487 -304 -7 -5 -32 -26 -57 -46 -231 -185 -454
-420 -616 -649 -290 -408 -494 -918 -559 -1393 -3 -20 -8 -50 -10 -67 -19
-121 -27 -501 -13 -660 10 -114 27 -239 43 -320 8 -38 16 -81 19 -95 9 -55 49
-201 82 -305 126 -392 344 -781 618 -1100 75 -88 262 -274 341 -340 33 -27 62
-52 65 -55 11 -13 169 -129 241 -178 162 -109 339 -204 543 -294 156 -68 488
-166 656 -193 19 -3 46 -7 60 -10 14 -3 39 -7 55 -9 17 -2 49 -7 72 -11 90
-14 136 -17 358 -20 127 -1 262 1 300 5 141 17 209 26 310 45 17 3 46 8 65 11
60 10 304 74 322 84 10 6 23 10 30 10 37 0 263 93 423 172 559 278 1046 730
1340 1243 87 150 159 297 210 425 20 52 41 104 45 115 51 124 135 458 155 621
4 27 8 60 10 73 13 77 20 210 20 381 0 254 -11 387 -50 595 -21 112 -21 111
-44 200 -12 44 -24 90 -26 101 -8 38 -86 256 -121 342 -121 294 -313 607 -523
852 -112 131 -331 340 -455 435 -28 21 -55 42 -60 47 -29 25 -205 142 -283
189 -307 182 -605 298 -958 374 -144 30 -196 39 -370 61 -50 6 -491 14 -497 9z"/>
</g>
</svg>
